<?xml version="1.0" encoding="UTF-8" standalone="no"?>
<!-- Created with Inkscape (http://www.inkscape.org/) -->

<svg
   xmlns:dc="http://purl.org/dc/elements/1.1/"
   xmlns:cc="http://creativecommons.org/ns#"
   xmlns:rdf="http://www.w3.org/1999/02/22-rdf-syntax-ns#"
   xmlns:svg="http://www.w3.org/2000/svg"
   xmlns="http://www.w3.org/2000/svg"
   xmlns:sodipodi="http://sodipodi.sourceforge.net/DTD/sodipodi-0.dtd"
   xmlns:inkscape="http://www.inkscape.org/namespaces/inkscape"
   version="1.1"
   id="svg2"
   width="2337.5801"
   height="2337.5801"
   viewBox="0 0 2337.5801 2337.5801"
   sodipodi:docname="ico.svg"
   inkscape:export-filename="C:\Users\James\OneDrive - Merrimack College\College\~Linear Algebra\Project\ImageProcessing\dat\ico.png"
   inkscape:export-xdpi="84.110001"
   inkscape:export-ydpi="84.110001"
   inkscape:version="0.92.4 (5da689c313, 2019-01-14)">
  <metadata
     id="metadata8">
    <rdf:RDF>
      <cc:Work
         rdf:about="">
        <dc:format>image/svg+xml</dc:format>
        <dc:type
           rdf:resource="http://purl.org/dc/dcmitype/StillImage" />
        <dc:title></dc:title>
      </cc:Work>
    </rdf:RDF>
  </metadata>
  <defs
     id="defs6" />
  <sodipodi:namedview
     pagecolor="#ffffff"
     bordercolor="#666666"
     borderopacity="1"
     objecttolerance="10"
     gridtolerance="10"
     guidetolerance="10"
     inkscape:pageopacity="0"
     inkscape:pageshadow="2"
     inkscape:window-width="2560"
     inkscape:window-height="1377"
     id="namedview4"
     showgrid="false"
     inkscape:snap-bbox="true"
     inkscape:zoom="0.19609542"
     inkscape:cx="1261.5607"
     inkscape:cy="662.08688"
     inkscape:window-x="-8"
     inkscape:window-y="-8"
     inkscape:window-maximized="1"
     inkscape:current-layer="svg2" />
  <g
     id="g999"
     transform="translate(1.4100098e-4,118.5929)">
    <g
       transform="matrix(0.91541683,0,0,0.91541683,623.87434,382.96429)"
       id="g915">
      <path
         inkscape:connector-curvature="0"
         id="path933"
         d="m 540.49152,1577.736 c 0.6875,-0.2774 1.8125,-0.2774 2.5,0 0.6875,0.2774 0.125,0.5044 -1.25,0.5044 -1.375,0 -1.9375,-0.227 -1.25,-0.5044 z m 97,0 c 0.6875,-0.2774 1.8125,-0.2774 2.5,0 0.6875,0.2774 0.125,0.5044 -1.25,0.5044 -1.375,0 -1.9375,-0.227 -1.25,-0.5044 z m -120.9375,-1.0208 c 0.72187,-0.2889 1.58438,-0.2534 1.91667,0.079 0.33229,0.3323 -0.25834,0.5687 -1.3125,0.5253 -1.16495,-0.048 -1.4019,-0.285 -0.60417,-0.6042 z m 146,0 c 0.7219,-0.2889 1.5844,-0.2534 1.9167,0.079 0.3323,0.3323 -0.2584,0.5687 -1.3125,0.5253 -1.165,-0.048 -1.4019,-0.285 -0.6042,-0.6042 z m -264.0625,-114.0491 c 2.3375,-0.2105 6.1625,-0.2105 8.5,0 2.3375,0.2105 0.425,0.3828 -4.25,0.3828 -4.675,0 -6.5875,-0.1723 -4.25,-0.3828 z m -21,-0.9301 c 0.6875,-0.2774 1.8125,-0.2774 2.5,0 0.6875,0.2774 0.125,0.5044 -1.25,0.5044 -1.375,0 -1.9375,-0.227 -1.25,-0.5044 z m 48.51903,-0.031 c 0.97297,-0.2535 2.32297,-0.2369 3,0.037 0.67703,0.2739 -0.11903,0.4813 -1.76903,0.461 -1.65,-0.02 -2.20394,-0.2445 -1.23097,-0.4981 z m -58.45653,-0.9901 c 0.72187,-0.2889 1.58438,-0.2534 1.91667,0.079 0.33229,0.3323 -0.25834,0.5687 -1.3125,0.5253 -1.16495,-0.048 -1.4019,-0.285 -0.60417,-0.6042 z m 68.9375,0.021 c 0.6875,-0.2774 1.8125,-0.2774 2.5,0 0.6875,0.2774 0.125,0.5044 -1.25,0.5044 -1.375,0 -1.9375,-0.227 -1.25,-0.5044 z m -76.9375,-1.0208 c 0.72187,-0.2889 1.58438,-0.2534 1.91667,0.079 0.33229,0.3323 -0.25834,0.5687 -1.3125,0.5253 -1.16495,-0.048 -1.4019,-0.285 -0.60417,-0.6042 z m 92,-1 c 0.72187,-0.2889 1.58438,-0.2534 1.91667,0.079 0.33229,0.3323 -0.25834,0.5687 -1.3125,0.5253 -1.16495,-0.048 -1.4019,-0.285 -0.60417,-0.6042 z m -224.94006,-54.0668 c -1.24387,-1.5861 -1.2085,-1.6214 0.37756,-0.3776 1.66575,1.3064 2.19548,2.1276 1.37244,2.1276 -0.20765,0 -0.99515,-0.7875 -1.75,-1.75 z m 357.62756,-5.25 c 0.99549,-1.1 2.03498,-2 2.30998,-2 0.275,0 -0.31449,0.9 -1.30998,2 -0.99549,1.1 -2.03498,2 -2.30998,2 -0.275,0 0.31449,-0.9 1.30998,-2 z m -376.5,-11.5 c -4.09747,-4.125 -7.22494,-7.5 -6.94994,-7.5 0.275,0 3.85247,3.375 7.94994,7.5 4.09747,4.125 7.22494,7.5 6.94994,7.5 -0.275,0 -3.85247,-3.375 -7.94994,-7.5 z m 394,-5.8776 c 0,-0.2076 0.7875,-0.9951 1.75,-1.75 1.5861,-1.2438 1.6214,-1.2085 0.3776,0.3776 -1.3064,1.6657 -2.1276,2.1955 -2.1276,1.3724 z m -715.53759,-54.8724 -4.96241,-5.25 5.25,4.9624 c 4.87839,4.6112 5.7086,5.5376 4.96241,5.5376 -0.15818,0 -2.52068,-2.3625 -5.25,-5.25 z m -15.5381,-15.5 -2.42431,-2.75 2.75,2.4243 c 2.57029,2.2659 3.20859,3.0757 2.42431,3.0757 -0.17912,0 -1.41662,-1.2375 -2.75,-2.75 z m 773.15459,-13.8333 c 0.048,-1.165 0.285,-1.4019 0.6042,-0.6042 0.2889,0.7219 0.2534,1.5844 -0.079,1.9167 -0.3323,0.3323 -0.5687,-0.2584 -0.5253,-1.3125 z m 440.17108,-7.106 c 0.9625,-0.2516 2.5375,-0.2516 3.5,0 0.9625,0.2515 0.175,0.4573 -1.75,0.4573 -1.925,0 -2.7125,-0.2058 -1.75,-0.4573 z m -927.05503,-5.8107 c 0.0204,-1.65 0.2445,-2.2039 0.49804,-1.231 0.25354,0.973 0.23687,2.323 -0.0371,3 -0.27393,0.6771 -0.48137,-0.119 -0.46099,-1.769 z m 488.99995,-4 c 0.02,-1.65 0.2445,-2.2039 0.4981,-1.231 0.2535,0.973 0.2369,2.323 -0.037,3 -0.2739,0.6771 -0.4813,-0.119 -0.461,-1.769 z m 0.037,-19.5 c 0,-1.925 0.2058,-2.7125 0.4573,-1.75 0.2516,0.9625 0.2516,2.5375 0,3.5 -0.2515,0.9625 -0.4573,0.175 -0.4573,-1.75 z m -489.07411,-2 c 0,-1.375 0.22698,-1.9375 0.50439,-1.25 0.27741,0.6875 0.27741,1.8125 0,2.5 -0.27741,0.6875 -0.50439,0.125 -0.50439,-1.25 z m 0.92106,-8.5833 c 0.048,-1.165 0.28494,-1.4019 0.60416,-0.6042 0.28887,0.7219 0.25335,1.5844 -0.0789,1.9167 -0.33229,0.3323 -0.56864,-0.2584 -0.52522,-1.3125 z m 486.99995,0 c 0.048,-1.165 0.285,-1.4019 0.6042,-0.6042 0.2889,0.7219 0.2534,1.5844 -0.079,1.9167 -0.3323,0.3323 -0.5687,-0.2584 -0.5253,-1.3125 z m 267.8454,-31.1667 -2.4243,-2.75 2.75,2.4243 c 2.5703,2.2659 3.2086,3.0757 2.4243,3.0757 -0.1791,0 -1.4166,-1.2375 -2.75,-2.75 z m -714.4242,-53.25 c 0.99549,-1.1 2.03498,-2 2.30998,-2 0.275,0 -0.31449,0.9 -1.30998,2 -0.99549,1.1 -2.03498,2 -2.30998,2 -0.275,0 0.31449,-0.9 1.30998,-2 z m 406.905,-1.25 -1.905,-2.25 2.25,1.905 c 2.1144,1.7902 2.7052,2.595 1.905,2.595 -0.1898,0 -1.2023,-1.0125 -2.25,-2.25 z m -387.405,-18.25 c 1.29175,-1.375 2.57363,-2.5 2.84863,-2.5 0.275,0 -0.55688,1.125 -1.84863,2.5 -1.29175,1.375 -2.57363,2.5 -2.84863,2.5 -0.275,0 0.55688,-1.125 1.84863,-2.5 z m 367.40499,-1.75 -1.90499,-2.25 2.25,1.905 c 2.11444,1.7902 2.70524,2.595 1.90499,2.595 -0.18976,0 -1.20226,-1.0125 -2.25,-2.25 z m 720.75289,-21.75 c 0,-1.375 0.227,-1.9375 0.5044,-1.25 0.2774,0.6875 0.2774,1.8125 0,2.5 -0.2774,0.6875 -0.5044,0.125 -0.5044,-1.25 z m 170.037,-14.5 c 0.02,-1.65 0.2445,-2.2039 0.4981,-1.231 0.2535,0.973 0.2369,2.323 -0.037,3 -0.2739,0.6771 -0.4813,-0.119 -0.461,-1.769 z M 454.55402,1085.7152 c 0.72187,-0.2889 1.58438,-0.2534 1.91667,0.079 0.33229,0.3323 -0.25834,0.5687 -1.3125,0.5253 -1.16495,-0.048 -1.4019,-0.285 -0.60417,-0.6042 z m -99,-1 c 0.72187,-0.2889 1.58438,-0.2534 1.91667,0.079 0.33229,0.3323 -0.25834,0.5687 -1.3125,0.5253 -1.16495,-0.048 -1.4019,-0.285 -0.60417,-0.6042 z m 93,0 c 0.72187,-0.2889 1.58438,-0.2534 1.91667,0.079 0.33229,0.3323 -0.25834,0.5687 -1.3125,0.5253 -1.16495,-0.048 -1.4019,-0.285 -0.60417,-0.6042 z m -85,-1 c 0.72187,-0.2889 1.58438,-0.2534 1.91667,0.079 0.33229,0.3323 -0.25834,0.5687 -1.3125,0.5253 -1.16495,-0.048 -1.4019,-0.285 -0.60417,-0.6042 z m 77,0 c 0.72187,-0.2889 1.58438,-0.2534 1.91667,0.079 0.33229,0.3323 -0.25834,0.5687 -1.3125,0.5253 -1.16495,-0.048 -1.4019,-0.285 -0.60417,-0.6042 z m -68.0625,-0.9792 c 0.6875,-0.2774 1.8125,-0.2774 2.5,0 0.6875,0.2774 0.125,0.5044 -1.25,0.5044 -1.375,0 -1.9375,-0.227 -1.25,-0.5044 z m 59,0 c 0.6875,-0.2774 1.8125,-0.2774 2.5,0 0.6875,0.2774 0.125,0.5044 -1.25,0.5044 -1.375,0 -1.9375,-0.227 -1.25,-0.5044 z m -46.98834,-1.045 c 1.24391,-0.2392 3.04391,-0.2301 4,0.02 0.95609,0.2503 -0.0617,0.446 -2.26166,0.4349 -2.2,-0.011 -2.98225,-0.2159 -1.73834,-0.4551 z m 33,0 c 1.24391,-0.2392 3.04391,-0.2301 4,0.02 0.95609,0.2503 -0.0617,0.446 -2.26166,0.4349 -2.2,-0.011 -2.98225,-0.2159 -1.73834,-0.4551 z M 1077.5032,962.69101 c 1.2439,-0.2392 3.0439,-0.2301 4,0.02 0.956,0.2503 -0.062,0.446 -2.2617,0.4349 -2.2,-0.011 -2.9823,-0.2159 -1.7383,-0.4551 z m 12.4883,0.018 c 0.9625,-0.2516 2.5375,-0.2516 3.5,0 0.9625,0.2515 0.175,0.4573 -1.75,0.4573 -1.925,0 -2.7125,-0.2058 -1.75,-0.4573 z M 785.41072,857.93493 c -25.2069,-21.08854 -45.7919,-38.72391 -45.7444,-39.18971 0.048,-0.4658 18.1479,-20.99624 40.223,-45.62319 35.6103,-39.72668 40.318,-44.62104 41.7444,-43.39974 0.8843,0.7571 21.9833,18.33622 46.8866,39.06472 l 45.2789,37.68819 -16.2789,18.13801 c -8.9533,9.97591 -26.9855,30.09611 -40.0714,44.71156 -13.086,14.61544 -24.336,26.65894 -25,26.76324 -0.6641,0.1043 -21.8313,-17.0645 -47.0382,-38.15308 z M -399.10059,747.39831 c 0,-1.375 0.22698,-1.9375 0.50439,-1.25 0.27741,0.6875 0.27741,1.8125 0,2.5 -0.27741,0.6875 -0.50439,0.125 -0.50439,-1.25 z m -0.0789,-48.58333 c 0.048,-1.16495 0.28494,-1.4019 0.60416,-0.60417 0.28887,0.72187 0.25335,1.58438 -0.0789,1.91667 -0.33229,0.33229 -0.56864,-0.25834 -0.52522,-1.3125 z m 1434.92099,-0.91667 c 1.2917,-1.375 2.5736,-2.5 2.8486,-2.5 0.275,0 -0.5569,1.125 -1.8486,2.5 -1.2917,1.375 -2.5736,2.5 -2.8486,2.5 -0.275,0 0.5569,-1.125 1.8486,-2.5 z m 9,-7.81291 c 0,-0.1721 1.4625,-1.6346 3.25,-3.25 l 3.25,-2.93709 -2.9371,3.25 c -2.7378,3.02946 -3.5629,3.70965 -3.5629,2.93709 z m 14,-13.18709 c 1.8658,-1.925 3.6173,-3.5 3.8923,-3.5 0.275,0 -1.0265,1.575 -2.8923,3.5 -1.8658,1.925 -3.6173,3.5 -3.8923,3.5 -0.275,0 1.0265,-1.575 2.8923,-3.5 z m 13,-12 c 1.8658,-1.925 3.6173,-3.5 3.8923,-3.5 0.275,0 -1.0265,1.575 -2.8923,3.5 -1.8658,1.925 -3.6173,3.5 -3.8923,3.5 -0.275,0 1.0265,-1.575 2.8923,-3.5 z m 13,-12 c 1.8658,-1.925 3.6173,-3.5 3.8923,-3.5 0.275,0 -1.0265,1.575 -2.8923,3.5 -1.8658,1.925 -3.6173,3.5 -3.8923,3.5 -0.275,0 1.0265,-1.575 2.8923,-3.5 z m 15.9582,-14.75 c 4.144,-4.41519 5.0418,-5.20909 5.0418,-4.45821 0,0.16049 -2.1375,2.29799 -4.75,4.75 l -4.75,4.45821 z m 16,-15 c 4.144,-4.41519 5.0418,-5.20909 5.0418,-4.45821 0,0.16049 -2.1375,2.29799 -4.75,4.75 l -4.75,4.45821 z m 19.0418,-18.25 c 2.9874,-3.025 5.6567,-5.5 5.9317,-5.5 0.275,0 -1.9443,2.475 -4.9317,5.5 -2.9874,3.025 -5.6567,5.5 -5.9317,5.5 -0.275,0 1.9443,-2.475 4.9317,-5.5 z m 17,-15.77503 c 0,-0.15126 3.4875,-3.63876 7.75,-7.75 l 7.75,-7.47497 -7.475,7.75 c -6.9426,7.19803 -8.025,8.20627 -8.025,7.47497 z m 65,-64.22497 c 18.4188,-18.425 33.7138,-33.5 33.9888,-33.5 0.275,0 -14.57,15.075 -32.9888,33.5 -18.4188,18.425 -33.7138,33.5 -33.9888,33.5 -0.275,0 14.57,-15.075 32.9888,-33.5 z m 53.5,-54.5 c 3.2656,-3.3 6.1624,-6 6.4374,-6 0.275,0 -2.1718,2.7 -5.4374,6 -3.2656,3.3 -6.1624,6 -6.4374,6 -0.275,0 2.1718,-2.7 5.4374,-6 z m 19,-20 c 2.7086,-2.75 5.1498,-5 5.4248,-5 0.275,0 -1.7162,2.25 -4.4248,5 -2.7086,2.75 -5.1498,5 -5.4248,5 -0.275,0 1.7162,-2.25 4.4248,-5 z m 11.5,-12.31291 c 0,-0.1721 1.4625,-1.6346 3.25,-3.25 l 3.25,-2.93709 -2.9371,3.25 c -2.7378,3.02946 -3.5629,3.70965 -3.5629,2.93709 z m 14,-15.18709 c 1.8658,-1.925 3.6173,-3.5 3.8923,-3.5 0.275,0 -1.0265,1.575 -2.8923,3.5 -1.8658,1.925 -3.6173,3.5 -3.8923,3.5 -0.275,0 1.0265,-1.575 2.8923,-3.5 z m 9.5,-10.5 c 0.9955,-1.1 2.035,-2 2.31,-2 0.275,0 -0.3145,0.9 -1.31,2 -0.9955,1.1 -2.035,2 -2.31,2 -0.275,0 0.3145,-0.9 1.31,-2 z m 8.5,-9.5 c 1.2917,-1.375 2.5736,-2.5 2.8486,-2.5 0.275,0 -0.5569,1.125 -1.8486,2.5 -1.2917,1.375 -2.5736,2.5 -2.8486,2.5 -0.275,0 0.5569,-1.125 1.8486,-2.5 z m 8,-9 c 1.2917,-1.375 2.5736,-2.5 2.8486,-2.5 0.275,0 -0.5569,1.125 -1.8486,2.5 -1.2917,1.375 -2.5736,2.5 -2.8486,2.5 -0.275,0 0.5569,-1.125 1.8486,-2.5 z m 7,-8 c 1.2917,-1.375 2.5736,-2.5 2.8486,-2.5 0.275,0 -0.5569,1.125 -1.8486,2.5 -1.2917,1.375 -2.5736,2.5 -2.8486,2.5 -0.275,0 0.5569,-1.125 1.8486,-2.5 z m 6.5,-7.5 c 0.9955,-1.1 2.035,-2 2.31,-2 0.275,0 -0.3145,0.9 -1.31,2 -0.9955,1.1 -2.035,2 -2.31,2 -0.275,0 0.3145,-0.9 1.31,-2 z m 4.5,-5.37756 c 0,-0.20765 0.7875,-0.99515 1.75,-1.75 1.5861,-1.24387 1.6214,-1.2085 0.3776,0.37756 -1.3064,1.66575 -2.1276,2.19548 -2.1276,1.37244 z m 6.5,-7.62244 c 0.9955,-1.1 2.035,-2 2.31,-2 0.275,0 -0.3145,0.9 -1.31,2 -0.9955,1.1 -2.035,2 -2.31,2 -0.275,0 0.3145,-0.9 1.31,-2 z m 5,-6 c 0.9955,-1.1 2.035,-2 2.31,-2 0.275,0 -0.3145,0.9 -1.31,2 -0.9955,1.1 -2.035,2 -2.31,2 -0.275,0 0.3145,-0.9 1.31,-2 z m 3.5,-4.37756 c 0,-0.20765 0.7875,-0.99515 1.75,-1.75 1.5861,-1.24387 1.6214,-1.2085 0.3776,0.37756 -1.3064,1.66575 -2.1276,2.19548 -2.1276,1.37244 z m 5,-6 c 0,-0.20765 0.7875,-0.99515 1.75,-1.75 1.5861,-1.24387 1.6214,-1.2085 0.3776,0.37756 -1.3064,1.66575 -2.1276,2.19548 -2.1276,1.37244 z m 4,-5 c 0,-0.20765 0.7875,-0.99515 1.75,-1.75 1.5861,-1.24387 1.6214,-1.2085 0.3776,0.37756 -1.3064,1.66575 -2.1276,2.19548 -2.1276,1.37244 z m 11,-14 c 0,-0.20765 0.7875,-0.99515 1.75,-1.75 1.5861,-1.24387 1.6214,-1.2085 0.3776,0.37756 -1.3064,1.66575 -2.1276,2.19548 -2.1276,1.37244 z m -236,-43.12244 c 1.2917,-1.375 2.5736,-2.5 2.8486,-2.5 0.275,0 -0.5569,1.125 -1.8486,2.5 -1.2917,1.375 -2.5736,2.5 -2.8486,2.5 -0.275,0 0.5569,-1.125 1.8486,-2.5 z m 9,-10 c 1.2917,-1.375 2.5736,-2.5 2.8486,-2.5 0.275,0 -0.5569,1.125 -1.8486,2.5 -1.2917,1.375 -2.5736,2.5 -2.8486,2.5 -0.275,0 0.5569,-1.125 1.8486,-2.5 z m 7,-7.81291 c 0,-0.1721 1.4625,-1.6346 3.25,-3.25 l 3.25,-2.93709 -2.9371,3.25 c -2.7378,3.02946 -3.5629,3.70965 -3.5629,2.93709 z m 12.5,-13.68709 c 2.1482,-2.2 4.1309,-4 4.4059,-4 0.275,0 -1.2577,1.8 -3.4059,4 -2.1482,2.2 -4.1309,4 -4.4059,4 -0.275,0 1.2577,-1.8 3.4059,-4 z m -28.4211,-7.58333 c 0.048,-1.16495 0.285,-1.4019 0.6042,-0.60417 0.2889,0.72187 0.2534,1.58438 -0.079,1.91667 -0.3323,0.33229 -0.5687,-0.25834 -0.5253,-1.3125 z m 44.4211,-9.41667 c 3.2656,-3.3 6.1624,-6 6.4374,-6 0.275,0 -2.1718,2.7 -5.4374,6 -3.2656,3.3 -6.1624,6 -6.4374,6 -0.275,0 2.1718,-2.7 5.4374,-6 z m 262.5789,-34.58333 c 0.048,-1.16495 0.285,-1.4019 0.6042,-0.60417 0.2889,0.72187 0.2534,1.58438 -0.079,1.91667 -0.3323,0.33229 -0.5687,-0.25834 -0.5253,-1.3125 z m -216.5789,-11.41667 c 2.7086,-2.75 5.1498,-5 5.4248,-5 0.275,0 -1.7162,2.25 -4.4248,5 -2.7086,2.75 -5.1498,5 -5.4248,5 -0.275,0 1.7162,-2.25 4.4248,-5 z m 217.6579,2 c 0,-1.375 0.227,-1.9375 0.5044,-1.25 0.2774,0.6875 0.2774,1.8125 0,2.5 -0.2774,0.6875 -0.5044,0.125 -0.5044,-1.25 z m -204.1579,-14.5 c 1.2917,-1.375 2.5736,-2.5 2.8486,-2.5 0.275,0 -0.5569,1.125 -1.8486,2.5 -1.2917,1.375 -2.5736,2.5 -2.8486,2.5 -0.275,0 0.5569,-1.125 1.8486,-2.5 z m -1413.99994,-6.87756 c 0,-0.20765 0.7875,-0.99515 1.75,-1.75 1.58606,-1.24387 1.62143,-1.2085 0.37756,0.37756 -1.30637,1.66575 -2.12756,2.19548 -2.12756,1.37244 z m 1423.49994,-1.62244 c 0.9955,-1.1 2.035,-2 2.31,-2 0.275,0 -0.3145,0.9 -1.31,2 -0.9955,1.1 -2.035,2 -2.31,2 -0.275,0 0.3145,-0.9 1.31,-2 z m 7,-6 c 0.9955,-1.1 2.035,-2 2.31,-2 0.275,0 -0.3145,0.9 -1.31,2 -0.9955,1.1 -2.035,2 -2.31,2 -0.275,0 0.3145,-0.9 1.31,-2 z m 174.3724,-0.75 c -1.2438,-1.58606 -1.2085,-1.62143 0.3776,-0.37756 1.6657,1.30637 2.1955,2.12756 1.3724,2.12756 -0.2076,0 -0.9951,-0.7875 -1.75,-1.75 z m -169.8724,-2.62756 c 0,-0.20765 0.7875,-0.99515 1.75,-1.75 1.5861,-1.24387 1.6214,-1.2085 0.3776,0.37756 -1.3064,1.66575 -2.1276,2.19548 -2.1276,1.37244 z m 165.8724,-2.37244 c -1.2438,-1.58606 -1.2085,-1.62143 0.3776,-0.37756 1.6657,1.30637 2.1955,2.12756 1.3724,2.12756 -0.2076,0 -0.9951,-0.7875 -1.75,-1.75 z m -9.41,-10.5 -4.9624,-5.25 5.25,4.96241 c 2.8875,2.72932 5.25,5.09182 5.25,5.25 0,0.74619 -0.9264,-0.084 -5.5376,-4.96241 z m -11.59,-10.5 c -1.2438,-1.58606 -1.2085,-1.62143 0.3776,-0.37756 1.6657,1.30637 2.1955,2.12756 1.3724,2.12756 -0.2076,0 -0.9951,-0.7875 -1.75,-1.75 z m -5,-4 c -1.2438,-1.58606 -1.2085,-1.62143 0.3776,-0.37756 1.6657,1.30637 2.1955,2.12756 1.3724,2.12756 -0.2076,0 -0.9951,-0.7875 -1.75,-1.75 z m -54.1224,-21.91228 c 0.6875,-0.27741 1.8125,-0.27741 2.5,0 0.6875,0.27741 0.125,0.50439 -1.25,0.50439 -1.375,0 -1.9375,-0.22698 -1.25,-0.50439 z m 10.0625,-0.0208 c 0.7219,-0.28887 1.5844,-0.25335 1.9167,0.0789 0.3323,0.33229 -0.2584,0.56864 -1.3125,0.52522 -1.165,-0.048 -1.4019,-0.28494 -0.6042,-0.60416 z m -611.99994,-134 c 0.7219,-0.28887 1.5844,-0.25335 1.9167,0.0789 0.3323,0.3323 -0.2584,0.56864 -1.3125,0.52522 -1.165,-0.048 -1.4019,-0.28494 -0.6042,-0.60416 z m 13,0 c 0.7219,-0.28887 1.5844,-0.25335 1.9167,0.0789 0.3323,0.3323 -0.2584,0.56864 -1.3125,0.52522 -1.165,-0.048 -1.4019,-0.28494 -0.6042,-0.60416 z m -174.0625,-98.9792 c 0.6875,-0.27741 1.8125,-0.27741 2.5,0 0.6875,0.27741 0.125,0.50439 -1.25,0.50439 -1.375,0 -1.9375,-0.22698 -1.25,-0.50439 z"
         style="fill:#cbcbcb" />
      <path
         inkscape:connector-curvature="0"
         id="path931"
         d="m 526.24152,1577.3682 c -240.22788,-11.4241 -437.28317,-75.8888 -570,-186.4697 -25.12081,-20.9309 -64.15263,-57.6302 -93.06147,-87.5002 C -289.60537,1145.5332 -377.71814,971.25931 -395.6869,791.39831 -412.15294,626.5791 -368.42593,460.576 -269.91926,313.94007 -217.17607,235.42715 -149.77938,164.79582 -72.0994,106.62602 -18.60601,66.56808 34.92611,35.50071 99.74152,6.89812 c 148.98787,-65.747305 300.54209,-107.84989 439,-121.95657 41.96405,-4.27548 56.89554,-4.95874 109,-4.98784 41.2785,-0.023 55.5688,0.3253 72,1.7551 98.2399,8.54856 176.4726,28.842041 245.5,63.682452 138.78118,70.047438 207.93208,188.237498 191.91108,328.007048 -0.7881,6.875 -1.696,13.92485 -2.0176,15.66634 -0.4036,2.18583 -5.2374,8.53396 -15.6097,20.5 -85.8953,99.09354 -206.05948,255.92797 -306.68758,400.279 -11.4695,16.45301 -18.3509,24.6835 -52.3087,62.56374 l -39.1018,43.61839 -6.5929,-1.2594 c -30.9438,-5.91107 -68.3013,0.0923 -93.4533,15.01792 -13.0252,7.72937 -27.3301,23.00778 -34.025,36.34055 -1.4434,2.8746 -6.1592,15.92456 -10.47957,28.99996 -19.42989,58.8042 -43.09284,108.29839 -77.25478,161.58849 -10.65699,16.6241 -24.91485,36.7611 -26.44386,37.3478 -0.60807,0.2334 -4.8925,-0.6712 -9.52094,-2.0101 -31.73743,-9.1809 -75.7217,-12.8311 -110.91535,-9.2049 -67.61309,6.9666 -125.20884,33.1496 -166.52138,75.7005 -25.20147,25.9569 -39.83353,52.4039 -46.94499,84.8517 -2.60231,11.8737 -3.14325,37.2544 -1.07448,50.4143 6.21901,39.5606 27.58072,75.9049 61.8284,105.1932 77.69185,66.4413 199.94476,83.0499 299.64983,40.7087 59.48135,-25.2597 102.38602,-68.6831 119.37292,-120.8162 5.9331,-18.2089 8.2732,-35.7704 7.3289,-55 -1.6605,-33.8122 -13.1759,-63.9802 -35.1022,-91.9609 -7.0935,-9.0522 -26.57949,-28.3712 -33.79209,-33.5025 l -4.75508,-3.3829 21.75508,-6.1844 c 83.47099,-23.7286 142.11709,-46.8575 175.50729,-69.2168 18.6931,-12.5176 36.5831,-34.6908 49.8238,-61.75249 15.7274,-32.1441 21.0048,-64.5971 15.3569,-94.4353 -1.1725,-6.1943 -1.1853,-7.6965 -0.077,-9 0.7319,-0.8606 18.6618,-20.92371 39.8442,-44.58471 34.429,-38.45767 40.4641,-44.71463 56.9066,-58.99917 23.8528,-20.72227 70.45128,-62.12992 84.01548,-74.65662 l 10.6224,-9.80987 3.8275,6.54478 c 11.0052,18.8181 29.4511,34.09955 57.9277,47.99011 23.4389,11.43325 43.9169,18.36438 116.5,39.43147 17.325,5.02854 40.05,11.99133 50.5,15.47287 87.8008,29.25182 140.7053,64.78044 175.7791,118.04644 22.2966,33.8616 35.5147,72.53249 42.3185,123.80759 2.0741,15.631 2.9946,63.284 1.502,77.7584 -6.1257,59.4035 -32.859,116.581 -79.1691,169.3281 -106.0272,120.7645 -310.8961,213.885 -558.93048,254.0544 -49.9501,8.0894 -101.503,13.6328 -164,17.6344 -21.4563,1.3738 -123.29731,1.9904 -146.5,0.887 z m 590.99998,-288.578 c 39.1259,-4.7671 77.9053,-19.6529 108.8035,-41.7653 18.4497,-13.2035 40.0761,-34.4081 54.1096,-53.0542 36.2134,-48.1165 34.6046,-94.1488 -4.9481,-141.5724 -8.1635,-9.788 -28.8354,-29.9369 -38.965,-37.979 -33.5892,-26.66729 -74.0428,-43.60999 -118.5,-49.62969 -16.9108,-2.2898 -47.3126,-2.2969 -63.9993,-0.015 -43.0343,5.885 -83.23258,22.1753 -114.65128,46.46249 -13.0817,10.1123 -29.7136,25.5803 -39.3494,36.5957 -50.6331,57.8823 -47.748,110.062 9.2751,167.7459 6.1737,6.2453 15.6386,15.0557 21.033,19.5788 51.1285,42.8694 118.08348,62.0527 187.19188,53.6326 z M 29.00431,1124.8282 c 63.26834,-7.8194 121.41114,-35.2103 163.28334,-76.9222 29.50886,-29.3959 47.7076,-61.64789 55.58457,-98.50769 3.20119,-14.9797 3.22507,-41.9428 0.0502,-56.6884 -15.54834,-72.21375 -80.97927,-123.71385 -172.6809,-135.91557 -17.46783,-2.32425 -52.23013,-2.34246 -69.5,-0.0364 -38.39405,5.12678 -69.02797,14.63966 -101.60454,31.55168 -60.67062,31.49696 -104.97313,84.36647 -117.38866,140.08869 -15.43375,69.2683 19.02438,135.67969 88.94794,171.42989 30.40087,15.5432 61.85931,23.8977 101.54526,26.9675 9.18499,0.7105 39.38143,-0.4373 51.76279,-1.9675 z M -42.25848,674.78505 c 83.73887,-10.6744 152.56611,-57.54097 180.48033,-122.89458 8.93238,-20.91275 12.06277,-37.86458 11.23657,-60.84874 -1.00445,-27.94289 -9.22225,-50.93419 -26.32243,-73.64342 -23.49096,-31.19626 -60.1768,-53.97857 -104.48144,-64.88412 -41.93834,-10.32309 -90.0131,-9.1017 -133.41303,3.3895 -20.80315,5.98749 -45.4538,16.84661 -63.15062,27.81915 -43.0661,26.70223 -75.19045,68.19807 -86.00249,111.09159 -3.53187,14.01164 -4.39946,39.01752 -1.84879,53.28624 8.19476,45.84232 37.34057,81.34435 86.78265,105.70851 40.5216,19.9683 87.76381,27.21634 136.71925,20.97587 z m 365,-317.90537 c 44.11031,-6.77162 84.52215,-23.66359 115.23195,-48.16644 33.97417,-27.10744 55.89443,-61.6301 63.37777,-99.81493 2.59246,-13.22838 2.35575,-34.82002 -0.53171,-48.5 C 495.01641,132.90472 479.04777,105.98903 457.60968,87.56663 435.89139,68.90344 404.93282,53.163 374.51948,45.32061 344.1905,37.49998 302.89903,36.18349 270.74152,42.01188 c -40.30398,7.30489 -78.56077,24.3569 -108.1123,48.18837 -4.18677,3.37637 -12.28677,11.02257 -18,16.99157 -41.8629,43.73695 -56.54801,97.31657 -39.73652,144.98137 12.88373,36.52861 41.87036,65.73957 85.96489,86.63018 22.31429,10.57181 46.47687,16.8137 77.38393,19.99049 8.63484,0.88753 44.44188,-0.3701 54.5,-1.91418 z m 522.122,-133.95641 c 25.0884,-2.93475 51.1248,-9.85825 69.5593,-18.49694 27.5189,-12.89582 50.9226,-35.90331 60.2716,-59.25148 17.8108,-44.48038 -7.0964,-96.66851 -61.9529,-129.80989 -77.7932,-46.998502 -194.6439,-48.701304 -262.5,-3.82527 -11.1005,7.3412 -26.7728,23.36013 -32.8451,33.57152 -12.7904,21.5087 -15.627,45.57281 -8.1423,69.07477 17.2516,54.17031 86.3521,98.65319 168.7594,108.63748 15.5131,1.87954 51.1803,1.93279 66.85,0.0998 z"
         style="fill:#f4c698" />
      <path
         inkscape:connector-curvature="0"
         id="path929"
         d="m -22.75848,1126.7957 c -39.68595,-3.0698 -71.14439,-11.4243 -101.54526,-26.9675 -69.92356,-35.7502 -104.38169,-102.16159 -88.94794,-171.42989 2.95576,-13.2658 6.5974,-23.4093 13.46295,-37.5 31.83683,-65.34128 101.32844,-114.5047 185.03025,-130.90385 26.9175,-5.27377 64.39939,-6.60651 90,-3.20012 91.70163,12.20172 157.13256,63.70182 172.6809,135.91557 3.17487,14.7456 3.15099,41.7087 -0.0502,56.6884 -7.87697,36.8598 -26.07571,69.11179 -55.58457,98.50769 -41.8722,41.7119 -100.015,69.1028 -163.28334,76.9222 -12.38136,1.5302 -42.5778,2.678 -51.76279,1.9675 z"
         style="fill:#fbf315" />
      <path
         inkscape:connector-curvature="0"
         id="path927"
         d="m -94.35983,676.40414 c -39.32774,-3.04354 -76.90655,-15.38967 -107.1179,-35.19248 -35.58439,-23.3247 -57.476,-55.03386 -64.28265,-93.11099 -2.55067,-14.26872 -1.68308,-39.2746 1.84879,-53.28624 7.49448,-29.73212 22.91598,-55.54614 48.65311,-81.44037 17.1615,-17.26626 35.66533,-30.12522 60.5,-42.04359 38.34602,-18.40259 78.7481,-26.9083 121.5,-25.57898 35.43794,1.1019 64.28072,7.67198 92.5,21.07054 26.58472,12.62247 48.19703,29.7299 63.89447,50.57628 17.10018,22.70923 25.31798,45.70053 26.32243,73.64342 0.8262,22.98416 -2.30419,39.93599 -11.23657,60.84874 -27.91422,65.35361 -96.74146,112.22018 -180.48033,122.89458 -14.9986,1.91191 -38.77154,2.65067 -52.10135,1.61909 z"
         style="fill:#fd5454" />
      <path
         inkscape:connector-curvature="0"
         id="path925"
         d="m 376.74152,1461.6822 c -20.6173,-1.6799 -48.44498,-7.4388 -69,-14.2794 -54.48223,-18.1313 -98.59683,-50.5295 -125.9576,-92.5045 -21.99582,-33.7445 -29.98336,-76.4385 -21.42153,-114.5 15.70465,-69.8147 82.16242,-128.5759 169.51773,-149.8857 25.95164,-6.3307 45.36769,-8.5674 73.8614,-8.5087 21.93652,0.045 32.62795,0.9488 53,4.4797 10.07384,1.746 34.87539,7.6099 35.85518,8.4773 1.20639,1.068 -30.91443,40.0988 -48.83257,59.3377 -7.35203,7.894 -12.44129,14.0997 -11.56298,14.0997 4.58277,0 74.62307,-16.2387 114.77951,-26.6114 l 25.73914,-6.6486 5.76086,4.3701 c 8.82815,6.6968 29.05516,27.4638 35.76086,36.7156 21.7005,29.9396 31.7962,60.1312 31.8252,95.1743 0.014,16.8553 -2.0794,30.7874 -6.936,46.1613 -24.589,77.838 -105.68225,133.8474 -208.24515,143.8307 -9.64061,0.9384 -43.94069,1.1233 -54.14405,0.2919 z"
         style="fill:#2badcc" />
      <path
         inkscape:connector-curvature="0"
         id="path923"
         d="m 1088.7415,649.02075 c 0,-0.20765 0.7875,-0.99515 1.75,-1.75 1.5861,-1.24387 1.6214,-1.2085 0.3776,0.37756 -1.3064,1.66575 -2.1276,2.19548 -2.1276,1.37244 z m 33,-31 c 0,-0.20765 0.7875,-0.99515 1.75,-1.75 1.5861,-1.24387 1.6214,-1.2085 0.3776,0.37756 -1.3064,1.66575 -2.1276,2.19548 -2.1276,1.37244 z m 20,-19 c 0,-0.20765 0.7875,-0.99515 1.75,-1.75 1.5861,-1.24387 1.6214,-1.2085 0.3776,0.37756 -1.3064,1.66575 -2.1276,2.19548 -2.1276,1.37244 z m 28,-27.12244 c 1.2917,-1.375 2.5736,-2.5 2.8486,-2.5 0.275,0 -0.5569,1.125 -1.8486,2.5 -1.2917,1.375 -2.5736,2.5 -2.8486,2.5 -0.275,0 0.5569,-1.125 1.8486,-2.5 z m 93,-93 c 1.2917,-1.375 2.5736,-2.5 2.8486,-2.5 0.275,0 -0.5569,1.125 -1.8486,2.5 -1.2917,1.375 -2.5736,2.5 -2.8486,2.5 -0.275,0 0.5569,-1.125 1.8486,-2.5 z m -53,-246.87756 c 0,-0.20765 0.7875,-0.99515 1.75,-1.75 1.5861,-1.24387 1.6214,-1.2085 0.3776,0.37756 -1.3064,1.66575 -2.1276,2.19548 -2.1276,1.37244 z m -430.99998,-9.22131 c -14.3117,-1.72285 -23.8378,-3.58348 -40.6594,-7.94154 -48.3099,-12.51592 -91.5131,-39.67323 -114.2018,-71.78677 -6.2327,-8.8217 -13.7221,-24.77243 -16.2802,-34.67282 -3.0683,-11.87489 -3.0518,-28.24858 0.04,-40 10.7666,-40.91859 50.8005,-71.13744 111.1011,-83.86252 80.8055,-17.052168 176.162,6.33517 225.6116,55.33397 17.9713,17.80739 28.3268,35.0335 33.9825,56.52855 2.3848,9.06399 2.3749,28.16266 -0.02,37.5 -2.0945,8.16744 -7.9797,21.28694 -12.6381,28.1733 -11.4295,16.89558 -32.2725,33.83105 -53.1844,43.21359 -17.3456,7.78245 -45.0084,14.95292 -67.7521,17.56201 -16.6247,1.90713 -49.9612,1.883 -66,-0.0478 z m 462.99998,-22.77869 c 0,-0.20765 0.7875,-0.99515 1.75,-1.75 1.5861,-1.24387 1.6214,-1.2085 0.3776,0.37756 -1.3064,1.66575 -2.1276,2.19548 -2.1276,1.37244 z"
         style="fill:#9055b5" />
      <path
         inkscape:connector-curvature="0"
         id="path921"
         d="m 268.24152,358.79386 c -2.2,-0.22613 -7.825,-0.88255 -12.5,-1.45871 -63.50922,-7.82711 -121.33933,-43.95833 -144.7494,-90.43684 -16.0367,-31.83938 -17.02271,-69.54116 -2.74606,-105 10.08447,-25.04674 31.42874,-53.18676 54.38316,-71.69806 34.75041,-28.02404 79.80422,-45.94429 127.95789,-50.89553 15.79052,-1.62361 50.33458,-0.58704 64.65441,1.94008 23.43786,4.13626 40.53908,9.6088 60.32332,19.30398 40.07953,19.64081 65.90632,45.52185 79.09486,79.261 5.98546,15.31211 8.36824,28.21983 8.41571,45.58853 0.061,22.32391 -4.99907,43.2863 -15.27837,63.29372 -29.28223,56.99436 -89.74676,96.62658 -165.05552,108.18765 -10.05812,1.54408 -45.86516,2.80171 -54.5,1.91418 z"
         style="fill:#82bd4e" />
      <path
         inkscape:connector-curvature="0"
         id="path919"
         d="m 440.85552,1157.6483 c 16.51965,-17.0253 41.93126,-47.2531 51.49102,-61.25 1.69041,-2.475 6.77645,-9.6715 11.30231,-15.9923 23.62015,-32.9877 50.23577,-79.5758 67.10109,-117.45399 10.67536,-23.976 17.44037,-41.5387 26.12651,-67.8272 4.32037,-13.0754 9.03617,-26.12536 10.47957,-28.99996 6.6949,-13.33277 20.9998,-28.61118 34.025,-36.34055 24.9053,-14.77923 60.5681,-20.66559 92.3605,-15.24467 7.4866,1.27654 7.6566,1.36257 6.1887,3.1313 -0.8605,1.03681 8.8259,9.59226 45.0319,39.77416 25.3705,21.14932 46.7036,38.59462 47.4068,38.76752 1.4963,0.3678 1.9183,1.6126 3.2834,9.6857 4.9046,29.0066 -0.5666,60.7944 -15.8348,92 -9.7701,19.96829 -23.6775,39.45969 -36.6115,51.31139 -38.9199,35.663 -154.7923,76.0091 -326.70432,113.7564 -13.6069,2.9877 -25.04067,5.4322 -25.40836,5.4322 -0.3677,0 4.02528,-4.8375 9.76218,-10.75 z m 471.5184,-352.0357 c -0.267,-0.43215 0.3484,-0.78572 1.3676,-0.78572 1.0192,0 1.6346,0.35357 1.3676,0.78572 -0.2671,0.43214 -0.8825,0.78571 -1.3676,0.78571 -0.4851,0 -1.1005,-0.35357 -1.3676,-0.78571 z m 7.3676,-4.59185 c 0,-0.20765 0.7875,-0.99515 1.75,-1.75 1.5861,-1.24387 1.6214,-1.2085 0.3776,0.37756 -1.3064,1.66575 -2.1276,2.19548 -2.1276,1.37244 z m 8,-7 c 0,-0.20765 0.7875,-0.99515 1.75,-1.75 1.5861,-1.24387 1.6214,-1.2085 0.3776,0.37756 -1.3064,1.66575 -2.1276,2.19548 -2.1276,1.37244 z m 7,-6 c 0,-0.20765 0.7875,-0.99515 1.75,-1.75 1.5861,-1.24387 1.6214,-1.2085 0.3776,0.37756 -1.3064,1.66575 -2.1276,2.19548 -2.1276,1.37244 z m 9.5,-8.62244 c 0.9955,-1.1 2.035,-2 2.31,-2 0.275,0 -0.3145,0.9 -1.31,2 -0.9955,1.1 -2.035,2 -2.31,2 -0.275,0 0.3145,-0.9 1.31,-2 z m 8,-7 c 0.9955,-1.1 2.035,-2 2.31,-2 0.275,0 -0.3145,0.9 -1.31,2 -0.9955,1.1 -2.035,2 -2.31,2 -0.275,0 0.3145,-0.9 1.31,-2 z m 7.5,-6.37756 c 0,-0.20765 0.7875,-0.99515 1.75,-1.75 1.5861,-1.24387 1.6214,-1.2085 0.3776,0.37756 -1.3064,1.66575 -2.1276,2.19548 -2.1276,1.37244 z m 9.5,-8.62244 c 0.9955,-1.1 2.035,-2 2.31,-2 0.275,0 -0.3145,0.9 -1.31,2 -0.9955,1.1 -2.035,2 -2.31,2 -0.275,0 0.3145,-0.9 1.31,-2 z m 9,-8 c 0.9955,-1.1 2.035,-2 2.31,-2 0.275,0 -0.3145,0.9 -1.31,2 -0.9955,1.1 -2.035,2 -2.31,2 -0.275,0 0.3145,-0.9 1.31,-2 z m 8.5,-7.37756 c 0,-0.20765 0.7875,-0.99515 1.75,-1.75 1.5861,-1.24387 1.6214,-1.2085 0.3776,0.37756 -1.3064,1.66575 -2.1276,2.19548 -2.1276,1.37244 z m 10.5,-9.62244 c 0.9955,-1.1 2.035,-2 2.31,-2 0.275,0 -0.3145,0.9 -1.31,2 -0.9955,1.1 -2.035,2 -2.31,2 -0.275,0 0.3145,-0.9 1.31,-2 z m 9.49998,-8.5 c 1.2917,-1.375 2.5736,-2.5 2.8486,-2.5 0.275,0 -0.5569,1.125 -1.8486,2.5 -1.2917,1.375 -2.5736,2.5 -2.8486,2.5 -0.275,0 0.5569,-1.125 1.8486,-2.5 z m 11,-10 c 1.2917,-1.375 2.5736,-2.5 2.8486,-2.5 0.275,0 -0.5569,1.125 -1.8486,2.5 -1.2917,1.375 -2.5736,2.5 -2.8486,2.5 -0.275,0 0.5569,-1.125 1.8486,-2.5 z m 59,-329.87756 c 0,-0.20765 0.7875,-0.99515 1.75,-1.75 1.5861,-1.24387 1.6214,-1.2085 0.3776,0.37756 -1.3064,1.66575 -2.1276,2.19548 -2.1276,1.37244 z m 9,-11 c 0,-0.20765 0.7875,-0.99515 1.75,-1.75 1.5861,-1.24387 1.6214,-1.2085 0.3776,0.37756 -1.3064,1.66575 -2.1276,2.19548 -2.1276,1.37244 z m 24,-29 c 0,-0.20765 0.7875,-0.99515 1.75,-1.75 1.5861,-1.24387 1.6214,-1.2085 0.3776,0.37756 -1.3064,1.66575 -2.1276,2.19548 -2.1276,1.37244 z m 11,-13 c 0,-0.20765 0.7875,-0.99515 1.75,-1.75 1.5861,-1.24387 1.6214,-1.2085 0.3776,0.37756 -1.3064,1.66575 -2.1276,2.19548 -2.1276,1.37244 z m 6,-7 c 0,-0.20765 0.7875,-0.99515 1.75,-1.75 1.5861,-1.24387 1.6214,-1.2085 0.3776,0.37756 -1.3064,1.66575 -2.1276,2.19548 -2.1276,1.37244 z m 6,-7 c 0,-0.20765 0.7875,-0.99515 1.75,-1.75 1.5861,-1.24387 1.6214,-1.2085 0.3776,0.37756 -1.3064,1.66575 -2.1276,2.19548 -2.1276,1.37244 z m 6,-7 c 0,-0.20765 0.7875,-0.99515 1.75,-1.75 1.5861,-1.24387 1.6214,-1.2085 0.3776,0.37756 -1.3064,1.66575 -2.1276,2.19548 -2.1276,1.37244 z m 7,-8 c 0,-0.20765 0.7875,-0.99515 1.75,-1.75 1.5861,-1.24387 1.6214,-1.2085 0.3776,0.37756 -1.3064,1.66575 -2.1276,2.19548 -2.1276,1.37244 z m 7,-8 c 0,-0.20765 0.7875,-0.99515 1.75,-1.75 1.5861,-1.24387 1.6214,-1.2085 0.3776,0.37756 -1.3064,1.66575 -2.1276,2.19548 -2.1276,1.37244 z"
         style="fill:#937050" />
      <path
         inkscape:connector-curvature="0"
         id="path917"
         d="m 443.74152,1154.0854 c 0,-0.1721 1.4625,-1.6346 3.25,-3.25 l 3.25,-2.9371 -2.93709,3.25 c -2.73778,3.0295 -3.56291,3.7097 -3.56291,2.9371 z m 12.5,-13.6871 c 0.99549,-1.1 2.03498,-2 2.30998,-2 0.275,0 -0.31449,0.9 -1.30998,2 -0.99549,1.1 -2.03498,2 -2.30998,2 -0.275,0 0.31449,-0.9 1.30998,-2 z m 5.5,-6.3776 c 0,-0.2076 0.7875,-0.9951 1.75,-1.75 1.58606,-1.2438 1.62143,-1.2085 0.37756,0.3776 -1.30637,1.6657 -2.12756,2.1955 -2.12756,1.3724 z m 5,-6 c 0,-0.2076 0.7875,-0.9951 1.75,-1.75 1.58606,-1.2438 1.62143,-1.2085 0.37756,0.3776 -1.30637,1.6657 -2.12756,2.1955 -2.12756,1.3724 z m 400.1567,-360.87239 c -25.3221,-21.0375 -46.0664,-38.53149 -46.0985,-38.87554 -0.1142,-1.22699 54.5106,-78.29526 87.8003,-123.87446 178.94828,-245.00994 323.47988,-410.29613 408.30538,-466.93759 23.2745,-15.54138 40.7995,-23.00834 55.8704,-23.80502 8.6755,-0.45861 10.2968,-0.24057 18,2.4209 26.0121,8.98723 59.2038,37.98155 71.2717,62.25887 4.0269,8.10101 4.1911,8.79826 4.121,17.5 -0.218,27.07299 -20.1718,66.1714 -62.8049,123.06284 -70.1138,93.56277 -210.1309,236.94658 -388.1221,397.45437 -53.73648,48.45811 -99.96698,89.04563 -101.42588,89.04563 -0.4825,0 -21.5953,-17.2125 -46.9174,-38.25 z"
         style="fill:#656565" />
    </g>
    <g
       transform="translate(0,-71.841198)"
       id="text937"
       style="font-style:normal;font-variant:normal;font-weight:normal;font-stretch:normal;font-size:2409.99951172px;line-height:1.25;font-family:'In your face', 'Joffrey!';-inkscape-font-specification:'In your face, Joffrey!';letter-spacing:0px;word-spacing:0px;fill:#000000;fill-opacity:1;stroke:none;stroke-width:60.24998474"
       aria-label="[">
      <path
         inkscape:connector-curvature="0"
         id="path977"
         style="font-style:normal;font-variant:normal;font-weight:normal;font-stretch:normal;font-family:'Cambria Math';-inkscape-font-specification:'Cambria Math';stroke-width:60.24998474"
         d="M 524.83392,2244.0767 H 3.7193298e-5 V -2.0742416e-5 H 524.83392 V 90.610312 H 195.34179 V 2153.4663 h 329.49213 z" />
    </g>
    <g
       id="text941"
       style="font-style:normal;font-variant:normal;font-weight:normal;font-stretch:normal;font-size:2409.99951172px;line-height:1.25;font-family:'In your face', 'Joffrey!';-inkscape-font-specification:'In your face, Joffrey!';letter-spacing:0px;word-spacing:0px;fill:#000000;fill-opacity:1;stroke:none;stroke-width:60.24998474"
       transform="matrix(-1,0,0,1,0,-71.841198)"
       aria-label="[">
      <path
         inkscape:connector-curvature="0"
         id="path980"
         style="font-style:normal;font-variant:normal;font-weight:normal;font-stretch:normal;font-family:'Cambria Math';-inkscape-font-specification:'Cambria Math';stroke-width:60.24998474"
         d="m -1812.7459,2244.0767 h -524.8339 V -2.0742416e-5 h 524.8339 V 90.610312 H -2142.238 V 2153.4663 h 329.4921 z" />
    </g>
  </g>
</svg>
